<?xml version="1.0" encoding="UTF-8"?>
<svg id="Layer_1" xmlns="http://www.w3.org/2000/svg" version="1.1" viewBox="0 0 32 32">
  <!-- Generator: Adobe Illustrator 30.2.1, SVG Export Plug-In . SVG Version: 2.1.1 Build 1)  -->
  <polygon points="12.29 29.85 8.8 27.81 7.84 27.24 10.07 25.92 11.88 26.97 16.01 29.4 27.42 22.72 27.42 18.53 29.83 18.53 29.83 23.97 27.82 25.14 25.8 26.32 23.13 27.88 16.02 32.01 12.29 29.85"/>
  <polygon points="16.02 2.6 4.61 9.32 4.61 13.47 2.19 13.48 2.19 8.08 16.01 0 20.28 2.49 23.74 4.5 21.52 5.85 16.02 2.6"/>
  <polygon points="13.71 23.77 16.01 22.41 16.02 24.75 20.15 22.31 23.37 20.42 23.37 17.49 21.32 17.49 22.81 15.8 25.37 12.88 29.44 17.49 25.52 17.49 25.53 21.64 16.02 27.2 14.21 26.14 11.96 24.82 13.71 23.77"/>
  <polygon points="10.7 14.52 8.18 17.39 6.66 19.13 4.74 16.96 2.58 14.51 6.5 14.51 6.5 10.4 13.64 6.2 16.01 4.81 19.64 6.94 16.02 9.15 16.01 7.25 10.96 10.23 8.66 11.59 8.66 14.51 10.7 14.52"/>
  <polygon points="28.66 15 27.41 13.62 27.42 9.31 22.69 6.52 24.91 5.2 29.45 7.85 29.83 8.09 29.83 16.29 28.66 15"/>
  <polygon points="8.9 25.23 6.65 26.56 2.2 23.97 2.2 15.71 4.61 18.38 4.61 22.72 8.9 25.23"/>
  <polygon points="25.39 11.38 23.37 13.64 23.37 11.59 18.76 8.87 20.82 7.62 22.39 8.54 25.52 10.39 25.51 11.53 25.39 11.38"/>
  <polygon points="16.4 15.44 16.01 15.67 12.59 13.65 16.01 11.63 19.44 13.64 16.4 15.44"/>
  <path d="M12.57,23.08l-1.8,1.06-4.27-2.51v-1.14l.14.14,2.01-2.25v2.04l2.21,1.3,2.01,1.19c-.11.07-.2.12-.3.18h.01Z"/>
  <polygon points="18.87 18.69 16.34 20.19 16.34 16.21 19.74 14.2 19.76 18.18 18.87 18.69"/>
  <polygon points="15.68 20.18 12.28 18.17 12.28 14.2 15.69 16.22 15.68 20.18"/>
</svg>